<?xml version="1.0" encoding="UTF-8"?>
<!DOCTYPE svg PUBLIC "-//W3C//DTD SVG 1.1//EN" "http://www.w3.org/Graphics/SVG/1.1/DTD/svg11.dtd">
<svg xmlns="http://www.w3.org/2000/svg" xml:space="preserve" width="630px" height="394px" version="1.1" style="shape-rendering:geometricPrecision; text-rendering:geometricPrecision; image-rendering:optimizeQuality; fill-rule:evenodd; clip-rule:evenodd"
viewBox="0 0 94500000 59062500"
 xmlns:xlink="http://www.w3.org/1999/xlink">
 <defs>
  <style type="text/css">
   <![CDATA[
    .fil2 {fill:#3C4641}
    .fil1 {fill:#3E4742}
    .fil0 {fill:#ED3341}
   ]]>
  </style>
 </defs>
 <g id="Layer_x0020_1">
  <path class="fil0" d="M42892251 15970973c234833,2555989 1402971,3784607 3633525,3195163 64614,-17483 464586,-605509 524121,-613778 100406,-13939 -325789,592397 -234951,589562 663981,-21026 1166839,235659 2703054,-1575788 -125567,2507794 385088,1931698 753047,3733577 -1039736,2409632 -1745415,307125 -1486485,4471622 -4668654,-2126 -6967721,-648979 -9839813,2159679 -1571417,1536924 -3134683,5759184 -3805515,8365022 -725760,124740 -1467939,37800 -1887401,510536 -484194,545619 -431747,1408050 35674,1833418 379890,345516 987289,308424 1519678,355793 800769,71348 1142151,473327 1136244,1236651 -6615,848964 -451001,1192826 -1631306,1191054 -3702746,-5316 -8320961,16538 -11713866,45596 -1026624,8741 -1698992,464822 -1746714,1344971 -50676,931416 521640,1260039 1499833,1295831 4286993,156988 8304069,-117653 12887201,141041 783996,103714 1189755,583183 1168256,1106004 -35201,855461 -707923,1099626 -1411594,1145104 -5730598,370440 -13969581,-91665 -19611231,141278 -797344,32839 -1694621,179786 -1702890,1222476 -6615,840459 589798,1177943 1399899,1281538 2377738,7088 5327556,1418 7519956,1890 2596151,591 5192775,4134 7788926,-118l-1007843 3222096 9601909 24334 3086606 -8484328c2943911,-111628 4325029,-862076 6023666,-2197361 944528,-742534 2909773,-3271590 3377903,-4985466l-6699578 -78081 1196016 -3619114c2873627,-19727 7980761,562984 10127447,-748913 1534089,-937440 4106970,-3980458 4422954,-6498411 -1731358,-38863 -8963443,287753 -9479649,-290469 -811991,-1588073 1028633,-2402426 1978121,-3132911 1388678,-1068441 1793846,-1560904 1785578,-3760746 230108,313386 87413,679809 294368,826048 502740,355320 1446913,224319 3038411,773010 1055447,363943 2115855,607399 3274661,404696 606218,-105958 570662,-121196 999692,-407413 -87767,-924683 -247472,-1025089 -709813,-1469003 1446086,654176 966617,1888937 966499,3676168 0,1623983 504512,3115429 -2599,4527259 -1397891,3892219 -3372351,4768234 -4125752,6086745l4834856 25043 -4320540 12061626c-2523504,20318 -10295893,-341499 -12094937,331459 -2551264,954568 -5105126,4809341 -5427844,6962878 3747398,-8151 17429226,243219 20078179,-244755 5769579,-1062534 6837902,-6323231 8783066,-11759344 1441716,-4029244 5291646,-11853371 -1699464,-14191183 -1193535,-382253 -1853145,-295667 -2077228,-395955 -216523,-96863 4489,-368078 -1209600,-1404861 -1196488,-1140379 -417690,-2367934 118716,-3662820 1265001,-3005691 3370461,-2733058 3370343,-6944096 -236,-4388934 2680611,-3141771 3022583,-4763627 307479,-1458135 -1345326,-645317 -2307336,-1215388 -794273,-470610 -170809,-694693 -1801524,-842940l-178251 -1084151c-406114,246999 -713003,925509 -824631,912870 -159705,-18191 -35083,-801478 -213216,-759780 -33075,7796 -73828,19845 -123323,42643 -162068,75009 -368668,285036 -609053,585900 -1161759,1454355 -3112358,5035433 -4642076,5789779 -3004746,1481878 -5309719,91074 -10962709,3162206 -2587056,1405451 -4703383,1914216 -7362259,348233z"/>
  <path class="fil1" d="M81444116 48006591c-917831,-4596598 5486670,-5710989 6489669,-1741753 1221649,4834502 -5678387,5805017 -6489669,1741753zm1873463 -5811986c-6608858,1801052 -4202297,11851718 2867130,10021253 6433324,-1665681 4111577,-11922947 -2867130,-10021253z"/>
  <polygon class="fil2" points="76840667,42255321 75263698,42301508 75172978,52072571 76944144,52066547 "/>
  <path class="fil1" d="M70635206 52314137c1084388,307834 2141370,-714302 1520859,-1977413 -474863,-966853 -2784797,-983627 -2488776,930589 89421,578931 388041,882158 967916,1046824z"/>
  <path class="fil1" d="M76175978 40542272c695402,-45006 1114037,-372448 1062889,-1137426 -18309,-275349 -120251,-539595 -294013,-710876 -609761,-601611 -1840151,-411548 -1952016,509001 -111628,919485 435173,1387733 1183140,1339301z"/>
  <path class="fil0" d="M14086524 36346354l15995897 0c719972,0 1308943,589089 1308943,1308943l0 0c0,719854 -589089,1308943 -1308943,1308943l-15995897 0c-719736,0 -1308943,-588971 -1308943,-1308943l0 0c0,-719972 589089,-1308943 1308943,-1308943z"/>
  <path class="fil0" d="M20652975 31242173l13718919 0c719972,0 1308943,589326 1308943,1308943l0 118c0,719618 -589208,1308943 -1308943,1308943l-13718919 0c-719736,0 -1308943,-588971 -1308943,-1308943l0 -118c0,-719972 588971,-1308943 1308943,-1308943z"/>
  <path class="fil0" d="M6885624 46609763l3154410 0c719972,0 1308943,589208 1308943,1308943l0 0c0,719736 -589326,1308943 -1308943,1308943l-3154410 0c-719736,0 -1308943,-588971 -1308943,-1308943l0 0c0,-719972 588971,-1308943 1308943,-1308943z"/>
 </g>
</svg>
