<?xml version="1.0" encoding="UTF-8" standalone="no"?>
<!DOCTYPE svg PUBLIC "-//W3C//DTD SVG 1.1//EN"
"http://www.w3.org/Graphics/SVG/1.1/DTD/svg11.dtd">


<!-- Page 1 -->
<svg x="0" y="0" width="1286" height="909" viewBox="0 0 1286 909" version="1.1" xmlns="http://www.w3.org/2000/svg" xmlns:xlink="http://www.w3.org/1999/xlink"
style="display: block;margin-left: auto;margin-right: auto;">
<defs>
<clipPath id="c0_1"><path d="M0,843.3V0H1273.3V843.3Z" /></clipPath>

<style type="text/css"><![CDATA[
text { white-space: pre; }
path, image { pointer-events: none; }
text::-moz-selection {
	color: transparent;
	background: rgba(0, 106, 173, 0.4);
}
text::selection {
	color: transparent;
	background: rgba(0, 106, 173, 0.4);
}

.s1_1{
font-size: 20.93px;
font-family: Carlito_9;
fill: TRANSPARENT;
}
.s2_1{
font-size: 23.83px;
font-family: Carlito_9;
fill: TRANSPARENT;
}

.g0_1{
fill: #FFFFFF;
}
.g1_1{
fill: none;
stroke: #D9D9D9;
stroke-width: 1.1032236;
stroke-linecap: butt;
stroke-linejoin: round;
}
.g2_1{
fill: none;
stroke: #BFBFBF;
stroke-width: 1.1032236;
stroke-linecap: butt;
stroke-linejoin: round;
}
.g3_1{
fill: none;
stroke: #5B9BD5;
stroke-width: 2.2510278;
stroke-linecap: butt;
stroke-linejoin: round;
}
.g4_1{
fill: #5B9BD5;
}
.g5_1{
fill: none;
stroke: #5B9BD5;
stroke-width: 0.15277778;
stroke-linecap: butt;
stroke-linejoin: round;
}
.g6_1{
fill: none;
stroke: #5B9BD5;
stroke-width: 2.248889;
stroke-linecap: butt;
stroke-linejoin: round;
}

]]></style>

</defs>
<path d="M0,0
L0,909
L1286,909
L1286,0 Z " 
fill="#FFFFFF" stroke="none" />
<path fill-rule="evenodd" d="M603.9,840.1H.6V.7H1207.4V840.1H603.9Z" class="g0_1" />
<path d="M603.9,840.1H.6V.7H1207.4V840.1H603.9ZM103.6,82.3V723.1M312.1,82.3V723.1M520.5,82.3V723.1M729.1,82.3V723.1M937.6,82.3V723.1M1146,82.3V723.1m0,0H103.6M1146,631.5H103.6M1146,540H103.6M1146,448.5H103.6M1146,356.9H103.6M1146,265.3H103.6M1146,173.8H103.6M1146,82.3H103.6" class="g1_1" />
<path d="M103.6,723.1H1146m-1042.4,0V82.3" class="g2_1" />
<path d="M312.1,576.5l2.9,-1.9m.9,-.7l3.1,-2.1m.9,-.8l2.9,-1.9m1.1,-.7l2.7,-2.1m1.1,-.6l2.9,-2.1m.9,-.7l3.1,-2.1m.9,-.6l2.9,-2.1m1.1,-.7l2.9,-2.1m.9,-.6l2.9,-2m1.1,-.8l2.9,-1.9m.9,-.8l2.9,-2m.9,-.8l3.1,-1.9m.9,-.8l2.9,-2m1,-.6l2.9,-2.1m1,-.8l2.9,-2m1,-.6l2.9,-2.1m1,-.6l2.9,-2.2m1,-.6l2.9,-2.1m.9,-.6l3,-2.2m1,-.6l2.9,-2.1m.9,-.6l2.9,-2m1.1,-.8l2.9,-2m.9,-.7l2.9,-2m1.1,-.8l2.9,-2m.9,-.7l2.9,-2m1.1,-.8l2.9,-2m.9,-.7l2.9,-2m1.1,-.8l2.9,-2m.9,-.6l2.9,-2.1m1.1,-.6l2.9,-2.2m.9,-.6l2.9,-2.1m1.1,-.6l2.9,-2.2m.9,-.6l3,-2.1m1,-.6l2.9,-2m.9,-.8l2.9,-2.1m1.1,-.6l2.9,-2m.9,-.8l2.9,-2m1,-.7l3,-2m.9,-.8l3,-2m.9,-.7l2.9,-2m1.1,-.6l2.8,-2.2m1,-.6l2.9,-2.1m.9,-.6l3.1,-2.2m.9,-.6l2.9,-2.1m.9,-.6l3.1,-2.2m.9,-.6l2.9,-2m1.1,-.7l2.7,-2.2m1.1,-.6l2.9,-2m.9,-.7l3.1,-2m.9,-.8l2.9,-2m1.1,-.7l2.9,-2m.9,-.8l2.9,-2m1.1,-.7l2.9,-2m.9,-.6l1.8,-1.4l1.1,-.8m.9,-.7l3.1,-2m.9,-.6l2.9,-2.2m1,-.6l2.9,-2.1m1,-.6l2.9,-2.2m1,-.6l2.9,-2.1m1,-.6l2.9,-2.2m1,-.6l2.9,-2m.9,-.7l2.9,-2m1.1,-.8l2.9,-2m.9,-.7l2.9,-2m1.1,-.8l2.9,-2m.9,-.7l2.9,-2m1.1,-.8l2.9,-2m.9,-.7l2.9,-2m1.1,-.6l2.9,-2.2m.9,-.6l2.9,-2.1M585,385l2.9,-2.2m.9,-.6l2.9,-2.1m1.1,-.6l2.9,-2.2m.9,-.6l2.9,-2m1.1,-.7l2.9,-2.2m.9,-.6l3,-2m1,-.7l2.9,-2m.9,-.8l2.9,-2m1.1,-.7l2.9,-2m.9,-.8l2.9,-2m1,-.6l2.9,-2.1m1,-.6l3,-2.2m.9,-.6l2.9,-2.1m1.1,-.6l2.8,-2.2m1,-.6l2.9,-2.1m.9,-.6l3.1,-2m.9,-.8l2.9,-2.1m.9,-.6l3.1,-2m.9,-.8l2.9,-2m1.1,-.7l2.7,-2m1.1,-.8l2.9,-2m.9,-.7l3.1,-2m.9,-.8l2.9,-2m1.1,-.6l2.9,-2.1m.9,-.8l2.9,-2m1.1,-.6l2.9,-2.1m.9,-.6l2.9,-2.2m1,-.6l3,-2.1m.9,-.6l2.9,-2.2m1,-.6l2.9,-2.1m1,-.6l2.9,-2m1,-.8l2.9,-2m1,-.7l2.9,-2m1,-.8l2.9,-2m.9,-.7l2.9,-2m1.1,-.6l2.9,-2.2m.9,-.7l2.9,-2m1.1,-.6l2.9,-2.2m.9,-.6l2.9,-2.1m1.1,-.6l2.9,-2.2m.9,-.6l2.9,-2.1m1.1,-.6l2.9,-2.2m.9,-.6l2.9,-2m1.1,-.7l2.9,-2m.9,-.8l2.9,-2.1m1.1,-.6l2.9,-2m.9,-.8l2.9,-2m1.1,-.7l2.9,-2m.9,-.8l3,-2m1,-.7l2.9,-2m.9,-.6l2.9,-2.2m1.1,-.6l2.9,-2.1m.9,-.6l2.9,-2.2m1,-.6l2.9,-2.1m1,-.6l3,-2.2m.9,-.6l2.9,-2m1.1,-.7l2.8,-2.2m1,-.6l2.9,-2m.9,-.7l3.1,-2m.9,-.8l2.9,-2m1.1,-.7l2.9,-2m.9,-.8l2.9,-2m1.1,-.7l2.9,-2m.9,-.6l2.9,-2.2m.9,-.7l3.1,-2m.9,-.6l2.9,-2.2m1.1,-.6l2.9,-2.1m.9,-.6l2.9,-2.2m1.1,-.6l2.9,-2.1m.9,-.6l2.9,-2.2m1,-.6l3,-2m.9,-.7l2.9,-2m1,-.8l2.9,-2m1,-.7l2.9,-2m1,-.8l2.9,-2m1,-.6l2.9,-2.1m1,-.8l2.9,-2m.9,-.6l2.9,-2.1m1.1,-.6l2.9,-2.2m.9,-.6l2.9,-2.1m1.1,-.6l2.9,-2.2m.9,-.6l2.9,-2.1m1.1,-.6l2.9,-2m.9,-.8l2.9,-2m1.1,-.7l2.9,-2m.9,-.8l2.9,-2m1.1,-.7l2.9,-2m.9,-.8l2.9,-2m1.1,-.7l2.9,-2m.9,-.8l2.9,-2m1.1,-.6l1.8,-1.3" class="g3_1" />
<path fill-rule="evenodd" d="M308.3,572.9v7.5h7.5v-7.5h-7.5Z" class="g4_1" />
<path d="M308.3,572.9v7.5h7.5v-7.5h-7.5Z" class="g5_1" />
<path fill-rule="evenodd" d="M516.8,426.4v7.5h7.5v-7.5h-7.5Z" class="g4_1" />
<path d="M516.8,426.4v7.5h7.5v-7.5h-7.5Z" class="g5_1" />
<path fill-rule="evenodd" d="M933.8,133.5v7.3h7.5v-7.3h-7.5Z" class="g4_1" />
<path d="M933.8,133.5v7.3h7.5v-7.3h-7.5Z" class="g5_1" />
<path d="M312.1,576.5l208.4,-128L937.6,265.3" class="g6_1" />
<path fill-rule="evenodd" d="M308.3,572.9v7.5h7.5v-7.5h-7.5Z" class="g4_1" />
<path d="M308.3,572.9v7.5h7.5v-7.5h-7.5Z" class="g5_1" />
<path fill-rule="evenodd" d="M516.8,444.7v7.5h7.5v-7.5h-7.5Z" class="g4_1" />
<path d="M516.8,444.7v7.5h7.5v-7.5h-7.5Z" class="g5_1" />
<path fill-rule="evenodd" d="M933.8,261.7V269h7.5v-7.3h-7.5Z" class="g4_1" />
<path d="M933.8,261.7V269h7.5v-7.3h-7.5Z" class="g5_1" />
<g clip-path="url(#c0_1)">
<g fill="#595959" >
<use xlink:href="#f0_2" transform="matrix(13.7,0,0,13.7,97.9,743.1)" />
<use xlink:href="#f0_3" transform="matrix(13.7,0,0,13.7,306.5,743.1)" />
<use xlink:href="#f0_4" transform="matrix(13.7,0,0,13.7,515,743.1)" />
<use xlink:href="#f0_7" transform="matrix(13.7,0,0,13.7,723.4,743.1)" />
<use xlink:href="#f0_9" transform="matrix(13.7,0,0,13.7,931.9,743.1)" />
<use xlink:href="#f0_b" transform="matrix(13.7,0,0,13.7,1140.5,743.1)" />
<use xlink:href="#f0_2" transform="matrix(13.7,0,0,13.7,88.2,728.1)" />
</g>
</g>
<text x="97" y="743" class="s1_1">0</text>
<text x="306" y="743" class="s1_1">1</text>
<text x="515" y="743" class="s1_1">2</text>
<text x="723" y="743" class="s1_1">3</text>
<text x="931" y="743" class="s1_1">4</text>
<text x="1140" y="743" class="s1_1">5</text>
<g clip-path="url(#c0_1)">
<g fill="#595959" >
<use xlink:href="#f0_b" transform="matrix(13.7,0,0,13.7,88.2,636.6)" />
</g>
</g>
<text x="88" y="728" class="s1_1">0</text>
<g clip-path="url(#c0_1)">
<g fill="#595959" >
<use xlink:href="#f0_3" transform="matrix(13.7,0,0,13.7,77,545.1)" />
</g>
</g>
<text x="88" y="636" class="s1_1">5</text>
<g clip-path="url(#c0_1)">
<g fill="#595959" >
<use xlink:href="#f0_2" transform="matrix(13.7,0,0,13.7,88.2,545.1)" />
<use xlink:href="#f0_3" transform="matrix(13.7,0,0,13.7,77,453.6)" />
</g>
</g>
<text x="77" y="545" dx="0,0.5" class="s1_1">10</text>
<g clip-path="url(#c0_1)">
<g fill="#595959" >
<use xlink:href="#f0_b" transform="matrix(13.7,0,0,13.7,88.2,453.6)" />
<use xlink:href="#f0_4" transform="matrix(13.7,0,0,13.7,77,361.9)" />
</g>
</g>
<text x="77" y="453" dx="0,0.5" class="s1_1">15</text>
<g clip-path="url(#c0_1)">
<g fill="#595959" >
<use xlink:href="#f0_2" transform="matrix(13.7,0,0,13.7,88.2,361.9)" />
<use xlink:href="#f0_4" transform="matrix(13.7,0,0,13.7,77,270.4)" />
</g>
</g>
<text x="77" y="361" dx="0,0.5" class="s1_1">20</text>
<g clip-path="url(#c0_1)">
<g fill="#595959" >
<use xlink:href="#f0_b" transform="matrix(13.7,0,0,13.7,88.2,270.4)" />
<use xlink:href="#f0_7" transform="matrix(13.7,0,0,13.7,77,178.9)" />
</g>
</g>
<text x="77" y="270" dx="0,0.5" class="s1_1">25</text>
<g clip-path="url(#c0_1)">
<g fill="#595959" >
<use xlink:href="#f0_2" transform="matrix(13.7,0,0,13.7,88.2,178.9)" />
<use xlink:href="#f0_7" transform="matrix(13.7,0,0,13.7,77,87.4)" />
</g>
</g>
<text x="77" y="178" dx="0,0.5" class="s1_1">30</text>
<g clip-path="url(#c0_1)">
<g fill="#595959" >
<use xlink:href="#f0_b" transform="matrix(13.7,0,0,13.7,88.2,87.4)" />
<use xlink:href="#f0_d" transform="matrix(15.6,0,0,15.6,337.5,48.2)" />
</g>
</g>
<text x="77" y="87" dx="0,0.5" class="s1_1">35</text>
<g clip-path="url(#c0_1)">
<g fill="#595959" >
<use xlink:href="#f0_e" transform="matrix(15.6,0,0,15.6,349.8,48.2)" />
<use xlink:href="#f0_f" transform="matrix(15.6,0,0,15.6,361,48.2)" />
<use xlink:href="#f0_g" transform="matrix(15.6,0,0,15.6,371.2,48.2)" />
<use xlink:href="#f0_h" transform="matrix(15.6,0,0,15.6,382.3,48.2)" />
<use xlink:href="#f0_i" transform="matrix(15.6,0,0,15.6,393.6,48.2)" />
<use xlink:href="#f0_i" transform="matrix(15.6,0,0,15.6,406.9,48.2)" />
<use xlink:href="#f0_k" transform="matrix(15.6,0,0,15.6,414.8,48.2)" />
<use xlink:href="#f0_l" transform="matrix(15.6,0,0,15.6,427.2,48.2)" />
<use xlink:href="#f0_m" transform="matrix(15.6,0,0,15.6,435,48.2)" />
<use xlink:href="#f0_n" transform="matrix(15.6,0,0,15.6,447.4,48.2)" />
<use xlink:href="#f0_o" transform="matrix(15.6,0,0,15.6,459.7,48.2)" />
<use xlink:href="#f0_k" transform="matrix(15.6,0,0,15.6,470.9,48.2)" />
<use xlink:href="#f0_p" transform="matrix(15.6,0,0,15.6,483.3,48.2)" />
<use xlink:href="#f0_n" transform="matrix(15.6,0,0,15.6,495.6,48.2)" />
<use xlink:href="#f0_i" transform="matrix(15.6,0,0,15.6,507.8,48.2)" />
<use xlink:href="#f0_q" transform="matrix(15.6,0,0,15.6,521.4,48.2)" />
<use xlink:href="#f0_e" transform="matrix(15.6,0,0,15.6,533.6,48.2)" />
<use xlink:href="#f0_i" transform="matrix(15.6,0,0,15.6,544.9,48.2)" />
<use xlink:href="#f0_h" transform="matrix(15.6,0,0,15.6,552.7,48.2)" />
<use xlink:href="#f0_r" transform="matrix(15.6,0,0,15.6,569.5,48.2)" />
<use xlink:href="#f0_p" transform="matrix(15.6,0,0,15.6,580.8,48.2)" />
<use xlink:href="#f0_h" transform="matrix(15.6,0,0,15.6,593.1,48.2)" />
<use xlink:href="#f0_h" transform="matrix(15.6,0,0,15.6,604.3,48.2)" />
<use xlink:href="#f0_s" transform="matrix(15.6,0,0,15.6,615.6,48.2)" />
<use xlink:href="#f0_n" transform="matrix(15.6,0,0,15.6,627.8,48.2)" />
<use xlink:href="#f0_p" transform="matrix(15.6,0,0,15.6,640.2,48.2)" />
<use xlink:href="#f0_t" transform="matrix(15.6,0,0,15.6,652.6,48.2)" />
<use xlink:href="#f0_v" transform="matrix(15.6,0,0,15.6,664.9,48.2)" />
<use xlink:href="#f0_d" transform="matrix(15.6,0,0,15.6,678.2,48.2)" />
<use xlink:href="#f0_d" transform="matrix(15.6,0,0,15.6,690.5,48.2)" />
<use xlink:href="#f0_w" transform="matrix(15.6,0,0,15.6,708.5,48.2)" />
<use xlink:href="#f0_4" transform="matrix(15.6,0,0,15.6,718.6,48.2)" />
<use xlink:href="#f0_x" transform="matrix(15.6,0,0,15.6,736.4,48.2)" />
<use xlink:href="#f0_l" transform="matrix(15.6,0,0,15.6,748.8,48.2)" />
<use xlink:href="#f0_m" transform="matrix(15.6,0,0,15.6,756.7,48.2)" />
<use xlink:href="#f0_y" transform="matrix(15.6,0,0,15.6,768.9,48.2)" />
<use xlink:href="#f0_y" transform="matrix(15.6,0,0,15.6,777.9,48.2)" />
<use xlink:href="#f0_z" transform="matrix(15.6,0,0,15.6,786.9,48.2)" />
<use xlink:href="#f0_f" transform="matrix(15.6,0,0,15.6,793.7,48.2)" />
<use xlink:href="#f0_m" transform="matrix(15.6,0,0,15.6,803.7,48.2)" />
<use xlink:href="#f0_10" transform="matrix(15.6,0,0,15.6,816.1,48.2)" />
<use xlink:href="#f0_10" transform="matrix(15.6,0,0,15.6,828.5,48.2)" />
<use xlink:href="#f0_h" transform="matrix(15.6,0,0,15.6,840.7,48.2)" />
<use xlink:href="#f0_f" transform="matrix(15.6,0,0,15.6,852,48.2)" />
<use xlink:href="#f0_i" transform="matrix(15.6,0,0,15.6,862,48.2)" />
</g>
</g>
<text x="337" y="48" dx="0,0,-0.3,0.1,0.3,-0.5,-0.2,0.1,0,-0.1,-0.5,-0.2,-0.1,0,-0.1,-0.1,-0.3,0,0.2,-0.7,-0.1,-0.2,-0.5,0.1,0.3,-0.1,-0.7,-0.5,-0.3,-0.1,-0.1,0.3,0.2,-0.2,0,0,0.2,0,0.3,0.1,-0.3,-0.4,-0.3,-0.3,-0.3,-0.6,0,-0.2,-0.1,-0.3,-0.5,0" class="s2_1">Packet throughput Rate Speedup: VPP L2 Cross-connect</text>
<path d="M434.8,795h67.8" class="g6_1" />
<path fill-rule="evenodd" d="M462.5,788.9v12.4H475V788.9H462.5Z" class="g4_1" />
<path d="M462.5,788.9v12.4H475V788.9H462.5Z" class="g5_1" />
<path d="M653,795h3.6m1.3,0h3.5m1.2,0h3.5m1.2,0h3.5m1.3,0h3.6m1.3,0h3.5m1.2,0h3.5m1.2,0h3.5m1.3,0h3.6m1.1,0h3.7m1,0h3.7m1.2,0H709m1.3,0h3.5m1.2,0h3.5m1.2,0H721" class="g3_1" />
<path fill-rule="evenodd" d="M680.8,788.9v12.4h12.5V788.9H680.8Z" class="g4_1" />
<path d="M680.8,788.9v12.4h12.5V788.9H680.8Z" class="g5_1" />
<g clip-path="url(#c0_1)">
<g fill="#595959" >
<use xlink:href="#f0_11" transform="matrix(13.7,0,0,13.7,507.2,800.1)" />
<use xlink:href="#f0_h" transform="matrix(13.7,0,0,13.7,525.1,800.1)" />
<use xlink:href="#f0_e" transform="matrix(13.7,0,0,13.7,535.2,800.1)" />
<use xlink:href="#f0_y" transform="matrix(13.7,0,0,13.7,545.3,800.1)" />
<use xlink:href="#f0_n" transform="matrix(13.7,0,0,13.7,553.1,800.1)" />
<use xlink:href="#f0_l" transform="matrix(13.7,0,0,13.7,564.3,800.1)" />
<use xlink:href="#f0_h" transform="matrix(13.7,0,0,13.7,572.2,800.1)" />
<use xlink:href="#f0_s" transform="matrix(13.7,0,0,13.7,582.3,800.1)" />
<use xlink:href="#f0_12" transform="matrix(13.7,0,0,13.7,725.5,800.1)" />
<use xlink:href="#f0_s" transform="matrix(13.7,0,0,13.7,731,800.1)" />
<use xlink:href="#f0_h" transform="matrix(13.7,0,0,13.7,742.3,800.1)" />
<use xlink:href="#f0_e" transform="matrix(13.7,0,0,13.7,752.4,800.1)" />
<use xlink:href="#f0_13" transform="matrix(13.7,0,0,13.7,762.5,800.1)" />
<use xlink:href="#f0_14" transform="matrix(13.7,0,0,13.7,996.1,777.1)" />
</g>
</g>
<text x="507" y="800" dx="0,0,-0.3,0,-0.4,0.1,0.6,-0.3" class="s1_1">Measured</text>
<text x="725" y="800" dx="0,0.2,0.3,-0.3,0" class="s1_1">Ideal</text>
<g clip-path="url(#c0_1)">
<g fill="#595959" >
<use xlink:href="#f0_15" transform="matrix(13.7,0,0,13.7,1002.8,777.1)" />
<use xlink:href="#f0_l" transform="matrix(13.7,0,0,13.7,1016.3,777.1)" />
<use xlink:href="#f0_m" transform="matrix(13.7,0,0,13.7,1028.4,777.1)" />
<use xlink:href="#f0_16" transform="matrix(13.7,0,0,13.7,1039.7,777.1)" />
<use xlink:href="#f0_x" transform="matrix(13.7,0,0,13.7,1050.8,777.1)" />
<use xlink:href="#f0_m" transform="matrix(13.7,0,0,13.7,1062.1,777.1)" />
<use xlink:href="#f0_l" transform="matrix(13.7,0,0,13.7,1073.3,777.1)" />
<use xlink:href="#f0_h" transform="matrix(13.7,0,0,13.7,1081.2,777.1)" />
<use xlink:href="#f0_y" transform="matrix(13.7,0,0,13.7,1091.3,777.1)" />
<use xlink:href="#f0_17" transform="matrix(13.7,0,0,13.7,1099,777.1)" />
<use xlink:href="#f0_14" transform="matrix(13.7,0,0,13.7,39.6,57.6)" />
</g>
</g>
<text x="996" y="777" dx="0,0.3,-0.1,0.3,-0.3,0.3,0.3,-0.3,0.1,0.1,0.6,-0.3,-0.5" class="s1_1">[Nr of Cores]</text>
<g clip-path="url(#c0_1)">
<g fill="#595959" >
<use xlink:href="#f0_11" transform="matrix(13.7,0,0,13.7,46.3,57.6)" />
<use xlink:href="#f0_p" transform="matrix(13.7,0,0,13.7,64.2,57.6)" />
<use xlink:href="#f0_p" transform="matrix(13.7,0,0,13.7,75.3,57.6)" />
<use xlink:href="#f0_y" transform="matrix(13.7,0,0,13.7,86.5,57.6)" />
<use xlink:href="#f0_17" transform="matrix(13.7,0,0,13.7,94.5,57.6)" />
</g>
</g>
<text x="39" y="57" dx="0,0.3,0,0.1,0.1,-0.2" class="s1_1">[Mpps]</text>

<defs>
<path d="M386,95c0,0,44,0,83,20c0,0,40,19,70,66c0,0,30,46,48,122c0,0,18,75,18,187c0,0,0,112,-18,188c0,0,-18,75,-48,122c0,0,-30,46,-70,66c0,0,-39,20,-83,20c0,0,-43,0,-82,-20c0,0,-39,-20,-69,-66c0,0,-31,-47,-49,-122c0,0,-17,-76,-17,-188c0,0,0,-112,17,-187c0,0,18,-76,49,-122c0,0,30,-47,69,-66c0,0,39,-20,82,-20ZM386,-9c0,0,-73,0,-136,29c0,0,-64,30,-110,92c0,0,-47,61,-74,155c0,0,-26,95,-26,223c0,0,0,128,26,223c0,0,27,94,74,156c0,0,46,62,110,92c0,0,63,30,136,30c0,0,74,0,137,-30c0,0,64,-30,111,-92c0,0,47,-62,74,-156c0,0,27,-95,27,-223c0,0,0,-128,-27,-223c0,0,-27,-94,-74,-155c0,0,-47,-62,-111,-92C523,20,460,-9,386,-9Z" 
id="f0_2"
transform="scale(0.001,-0.001)" />

<path d="M190,0V95H394V757c0,0,0,29,2,61L230,671c0,0,-13,-11,-28,-11c-2,0,-5,1,-7,1c0,0,-17,5,-23,15l-40,54L418,983H519V95H706V0Z" 
id="f0_3"
transform="scale(0.001,-0.001)" />

<path d="M69,0V43c0,0,0,12,5,27c0,0,5,14,18,26L395,410c0,0,39,39,70,76c0,0,31,36,53,73c0,0,21,37,33,75c0,0,12,38,12,81c0,0,0,42,-13,74c0,0,-13,32,-35,54c0,0,-23,21,-53,31c0,0,-31,11,-67,11c0,0,-35,0,-65,-11c0,0,-29,-11,-52,-30c0,0,-24,-19,-40,-45c0,0,-16,-27,-24,-58c0,0,-6,-26,-20,-33c0,0,-10,-6,-27,-6c-4,0,-9,1,-14,1L88,714c0,0,9,68,36,120c0,0,27,51,68,87c0,0,41,35,95,53c0,0,53,17,115,17c0,0,62,0,115,-18c0,0,53,-19,92,-54c0,0,39,-35,61,-86c0,0,22,-50,22,-115c0,0,0,-55,-17,-101c0,0,-16,-47,-43,-90c0,0,-27,-42,-63,-83c0,0,-36,-40,-75,-81L242,101c0,0,29,8,58,12c0,0,28,5,54,5H665c0,0,21,0,32,-12c0,0,12,-11,12,-31V0Z" 
id="f0_4"
transform="scale(0.001,-0.001)" />

<path d="M396,-9c0,0,-76,0,-130,18c0,0,-53,19,-91,53c0,0,-38,34,-63,80c0,0,-25,47,-41,102l54,23c0,0,14,6,31,6c3,0,7,0,10,-1c0,0,20,-3,29,-22c0,0,9,-19,22,-46c0,0,13,-26,35,-51c0,0,23,-24,57,-41c0,0,34,-17,86,-17c0,0,49,0,85,17c0,0,37,17,62,43c0,0,24,26,37,59c0,0,12,33,12,64c0,0,0,39,-10,72c0,0,-10,33,-36,57c0,0,-27,23,-75,37c0,0,-47,13,-122,13v91c0,0,62,0,104,13c0,0,43,13,69,36c0,0,27,22,39,53c0,0,12,32,12,69c0,0,0,42,-12,73c0,0,-12,31,-34,52c0,0,-22,21,-53,31c0,0,-30,10,-66,10c0,0,-36,0,-65,-11c0,0,-29,-11,-53,-30c0,0,-23,-19,-39,-45c0,0,-16,-27,-24,-58c0,0,-6,-26,-20,-33c0,0,-10,-6,-27,-6c-5,0,-9,1,-14,1L99,714c0,0,10,68,37,120c0,0,27,51,68,87c0,0,41,35,95,53c0,0,53,17,115,17c0,0,62,0,113,-17c0,0,52,-18,89,-51c0,0,37,-33,58,-79c0,0,21,-47,21,-103c0,0,0,-47,-12,-84c0,0,-12,-36,-33,-64c0,0,-22,-28,-52,-47c0,0,-31,-19,-69,-31c0,0,93,-25,140,-84c0,0,47,-60,47,-149c0,0,0,-68,-25,-122c0,0,-26,-54,-69,-92C622,68,578,30,520,10C520,10,462,-9,396,-9Z" 
id="f0_7"
transform="scale(0.001,-0.001)" />

<path d="M498,354V754c0,0,0,36,4,79L160,354ZM498,0V257H76c0,0,-15,0,-25,7c0,0,-9,8,-12,21L26,348L490,981H607V354H749V283c0,0,0,-11,-7,-19c0,0,-7,-7,-21,-7H607V0Z" 
id="f0_9"
transform="scale(0.001,-0.001)" />

<path d="M338,-9c0,0,-43,0,-81,8c0,0,-39,8,-73,22c0,0,-35,14,-64,33c0,0,-28,18,-51,39l38,53c0,0,14,18,34,18c0,0,13,0,30,-10c0,0,17,-11,41,-24c0,0,24,-13,56,-23c0,0,32,-11,77,-11c0,0,49,0,88,17c0,0,40,16,68,46c0,0,27,30,42,72c0,0,15,42,15,94c0,0,0,46,-13,82c0,0,-13,37,-39,63c0,0,-26,26,-64,40c0,0,-39,14,-91,14c0,0,-72,0,-153,-26l-78,23l78,459H654V926c0,0,0,-26,-17,-43c0,0,-16,-18,-56,-18H285L242,612c0,0,38,8,71,12c0,0,33,3,64,3c0,0,75,0,132,-22c0,0,58,-23,97,-63c0,0,39,-39,58,-93c0,0,20,-54,20,-118c0,0,0,-78,-26,-141c0,0,-27,-63,-74,-108C584,82,538,37,474,13C474,13,411,-9,338,-9Z" 
id="f0_b"
transform="scale(0.001,-0.001)" />

<path d="M391,473c0,0,52,0,92,15c0,0,41,15,68,42c0,0,27,27,41,64c0,0,14,37,14,82c0,0,0,94,-53,146c0,0,-53,52,-162,52H245V473ZM110,0V980H391c0,0,89,0,155,-21c0,0,66,-22,110,-62c0,0,43,-39,64,-95c0,0,22,-57,22,-126c0,0,0,-69,-23,-125c0,0,-23,-57,-67,-99c0,0,-45,-41,-110,-64c0,0,-65,-22,-151,-22H245V0Z" 
id="f0_d"
transform="scale(0.001,-0.001)" />

<path d="M307,81c0,0,32,0,60,6c0,0,28,7,52,19c0,0,25,13,47,31c0,0,22,18,44,41V328c0,0,-88,-3,-149,-14c0,0,-61,-11,-100,-29c0,0,-38,-18,-55,-42c0,0,-17,-24,-17,-54c0,0,0,-29,9,-49c0,0,9,-21,25,-34c0,0,16,-13,37,-19c0,0,22,-6,47,-6ZM267,-10c0,0,-42,0,-79,10c0,0,-37,12,-65,36c0,0,-28,24,-44,61c0,0,-16,36,-16,85c0,0,0,43,23,83c0,0,24,40,77,71c0,0,53,32,138,52c0,0,85,19,209,22v56c0,0,0,85,-37,128c0,0,-36,43,-105,43c0,0,-46,0,-78,-12c0,0,-32,-12,-55,-26c0,0,-23,-14,-40,-26c0,0,-17,-12,-34,-12c0,0,-13,0,-23,7c0,0,-10,6,-16,17L98,627c0,0,61,58,131,87c0,0,69,28,154,28c0,0,62,0,109,-20c0,0,48,-19,80,-56c0,0,32,-36,49,-87c0,0,17,-51,17,-113V0H580c0,0,-20,0,-30,6c0,0,-11,6,-14,25L519,98c0,0,-28,-26,-55,-46c0,0,-28,-21,-57,-35C407,17,377,3,342,-3c0,0,-34,-7,-75,-7Z" 
id="f0_e"
transform="scale(0.001,-0.001)" />

<path d="M357,-9c0,0,-64,0,-120,24c0,0,-56,25,-97,73c0,0,-42,49,-65,118c0,0,-24,70,-24,160c0,0,0,81,22,150c0,0,22,69,63,119c0,0,42,50,102,78c0,0,61,28,140,28c0,0,75,0,131,-25c0,0,56,-25,99,-70L574,598c0,0,-6,-8,-12,-12c0,0,-5,-4,-16,-4c0,0,-11,0,-23,9c0,0,-12,9,-30,20c0,0,-18,10,-44,19c0,0,-25,9,-63,9c0,0,-49,0,-86,-19c0,0,-38,-19,-63,-54c0,0,-25,-36,-38,-86c0,0,-13,-51,-13,-114c0,0,0,-66,14,-117c0,0,13,-51,39,-86c0,0,25,-35,61,-54c0,0,36,-18,80,-18c0,0,44,0,71,11c0,0,28,11,47,25c0,0,18,13,31,24c0,0,12,12,25,12c0,0,15,0,24,-13l38,-48c0,0,-24,-29,-53,-50c0,0,-29,-21,-62,-35C501,17,467,3,431,-3c0,0,-36,-6,-74,-6Z" 
id="f0_f"
transform="scale(0.001,-0.001)" />

<path d="M95,0V1061H227V437h30c0,0,14,0,22,4c0,0,9,4,19,16L492,704c0,0,10,12,21,19c0,0,11,7,29,7H661L432,442c0,0,-11,-11,-21,-20c0,0,-10,-9,-22,-17c0,0,12,-8,22,-20c0,0,10,-11,21,-24L676,0H558c0,0,-16,0,-28,6c0,0,-12,5,-21,19L310,324c0,0,-11,15,-20,20c0,0,-10,4,-30,4H227V0Z" 
id="f0_g"
transform="scale(0.001,-0.001)" />

<path d="M587,445c0,0,0,44,-13,81c0,0,-12,36,-36,63c0,0,-24,26,-59,41c0,0,-34,15,-78,15c0,0,-91,0,-145,-53c0,0,-53,-54,-67,-147ZM406,-9c0,0,-76,0,-140,24c0,0,-65,25,-111,75c0,0,-47,50,-73,122c0,0,-26,73,-26,168c0,0,0,76,23,142c0,0,24,66,68,115c0,0,45,49,108,76c0,0,64,28,144,28c0,0,66,0,122,-22c0,0,56,-22,97,-63c0,0,41,-42,64,-102c0,0,23,-61,23,-139c0,0,0,-31,-7,-41c0,0,-6,-10,-24,-10H186c0,0,1,-69,18,-120c0,0,18,-51,48,-84c0,0,30,-34,72,-51c0,0,42,-16,93,-16c0,0,48,0,83,10c0,0,35,11,60,25c0,0,25,13,42,24c0,0,17,11,30,11c0,0,8,0,14,-4c0,0,6,-3,10,-9l38,-48c0,0,-25,-29,-58,-50c0,0,-33,-21,-71,-35C565,17,527,3,486,-3c0,0,-41,-6,-80,-6Z" 
id="f0_h"
transform="scale(0.001,-0.001)" />

<path d="M311,-10c0,0,-84,0,-130,47c0,0,-45,49,-45,139V621H52c0,0,-11,0,-19,7c0,0,-8,8,-8,22v52l115,15l31,224c0,0,1,12,9,18c0,0,8,7,20,7h67V716H468V621H267V185c0,0,0,-45,21,-67c0,0,20,-23,53,-23c0,0,19,0,33,6c0,0,14,5,24,12c0,0,9,6,16,12c0,0,7,5,13,5c0,0,7,0,11,-3c0,0,4,-3,8,-10L485,54C485,54,451,23,406,6c0,0,-46,-16,-95,-16Z" 
id="f0_i"
transform="scale(0.001,-0.001)" />

<path d="M107,0V1061H238V633c0,0,45,50,101,79c0,0,56,29,129,29c0,0,59,0,105,-20c0,0,45,-20,75,-56c0,0,31,-36,46,-87c0,0,15,-51,15,-113V0H578V465c0,0,0,81,-36,127c0,0,-37,45,-112,45c0,0,-56,0,-104,-27c0,0,-48,-27,-88,-74V0Z" 
id="f0_k"
transform="scale(0.001,-0.001)" />

<path d="M98,0V730h75c0,0,21,0,30,-9c0,0,8,-8,10,-27l9,-108c0,0,33,73,82,114c0,0,50,42,119,42c0,0,23,0,43,-5c0,0,20,-4,37,-16L492,624c0,0,-2,-18,-21,-18c0,0,-10,0,-29,4c0,0,-19,4,-42,4c0,0,-34,0,-59,-10c0,0,-26,-10,-47,-30c0,0,-20,-20,-36,-48c0,0,-16,-28,-29,-65V0Z" 
id="f0_l"
transform="scale(0.001,-0.001)" />

<path d="M404,92c0,0,53,0,92,18c0,0,40,18,66,53c0,0,27,35,40,86c0,0,13,51,13,116c0,0,0,65,-13,115c0,0,-13,51,-40,86c0,0,-26,35,-66,54c0,0,-39,19,-92,19c0,0,-54,0,-94,-19c0,0,-40,-19,-66,-54c0,0,-27,-35,-40,-86c0,0,-13,-50,-13,-115c0,0,0,-65,13,-116c0,0,13,-51,40,-86c0,0,26,-35,66,-53c0,0,40,-18,94,-18ZM404,-9c0,0,-80,0,-145,25c0,0,-64,27,-109,75c0,0,-46,49,-70,119c0,0,-24,69,-24,156c0,0,0,85,24,155c0,0,24,69,70,118c0,0,45,49,109,75c0,0,65,27,145,27c0,0,79,0,144,-27c0,0,64,-26,108,-75c0,0,45,-49,69,-118c0,0,25,-70,25,-155c0,0,0,-87,-25,-156c0,0,-24,-70,-69,-119C656,91,612,43,548,16C548,16,483,-9,404,-9Z" 
id="f0_m"
transform="scale(0.001,-0.001)" />

<path d="M336,-10c0,0,-60,0,-105,19c0,0,-45,19,-76,56c0,0,-30,36,-46,87c0,0,-16,51,-16,113V730H225V265c0,0,0,-82,36,-127c0,0,37,-45,113,-45c0,0,56,0,104,26c0,0,48,26,89,73V730H698V0H619c0,0,-13,0,-22,6c0,0,-9,7,-11,21l-12,77c0,0,-47,-52,-104,-83c0,0,-58,-31,-134,-31Z" 
id="f0_n"
transform="scale(0.001,-0.001)" />

<path d="M355,-167c0,0,49,0,87,10c0,0,38,10,65,26c0,0,26,17,39,41c0,0,13,23,13,51c0,0,0,27,-13,42c0,0,-14,16,-38,26c0,0,-24,9,-55,13c0,0,-32,4,-67,6c0,0,-35,3,-71,4c0,0,-36,2,-70,7c0,0,-36,-19,-59,-47c0,0,-23,-26,-23,-64c0,0,0,-25,11,-45c0,0,11,-21,34,-37c0,0,24,-15,61,-24c0,0,36,-9,86,-9ZM345,358c0,0,72,0,109,40c0,0,37,41,37,106c0,0,0,66,-37,105c0,0,-37,39,-109,39c0,0,-71,0,-108,-39c0,0,-37,-39,-37,-105c0,0,0,-33,9,-59c0,0,10,-26,28,-46c0,0,18,-19,45,-30c0,0,28,-11,63,-11Zm8,-620c0,0,-77,0,-134,16c0,0,-58,16,-96,43c0,0,-38,26,-57,62c0,0,-18,35,-18,73c0,0,0,53,31,90c0,0,32,37,88,59c0,0,-30,14,-48,38c0,0,-18,25,-18,66c0,0,0,31,22,66c0,0,22,35,67,59c0,0,-51,30,-81,80c0,0,-29,50,-29,117c0,0,0,53,20,97c0,0,19,43,54,74c0,0,35,31,84,47c0,0,48,17,107,17c0,0,45,0,85,-11c0,0,39,-10,71,-30H692V653c0,0,0,-26,-30,-31L585,611c0,0,23,-48,23,-104c0,0,0,-54,-20,-97c0,0,-20,-44,-55,-74c0,0,-35,-31,-83,-48c0,0,-48,-16,-105,-16c0,0,-48,0,-88,11c0,0,-22,-14,-32,-30c0,0,-11,-17,-11,-32c0,0,0,-26,20,-39c0,0,20,-13,53,-19c0,0,33,-6,75,-7c0,0,42,-2,85,-5c0,0,44,-3,86,-11c0,0,41,-7,74,-25c0,0,33,-19,53,-50c0,0,20,-32,20,-82c0,0,0,-47,-22,-91c0,0,-22,-44,-65,-78c0,0,-42,-35,-103,-55c0,0,-60,-21,-137,-21Z" 
id="f0_o"
transform="scale(0.001,-0.001)" />

<path d="M404,91c0,0,100,0,154,72c0,0,54,73,54,207c0,0,0,71,-12,122c0,0,-12,50,-36,83c0,0,-23,32,-57,47c0,0,-34,15,-77,15c0,0,-61,0,-108,-28c0,0,-47,-29,-86,-81V176c0,0,35,-47,76,-66c0,0,42,-19,92,-19ZM105,-245V730h79c0,0,14,0,23,-7c0,0,9,-6,10,-20l13,-85c0,0,46,56,106,90c0,0,59,34,137,34c0,0,63,0,113,-24c0,0,51,-24,87,-71c0,0,36,-47,55,-117c0,0,19,-69,19,-160c0,0,0,-81,-21,-150c0,0,-22,-70,-62,-121c0,0,-41,-51,-99,-80C565,19,507,-9,433,-9c0,0,-66,0,-113,21c0,0,-47,22,-84,63V-245Z" 
id="f0_p"
transform="scale(0.001,-0.001)" />

<path d="M373,507c0,0,54,0,94,13c0,0,41,14,69,39c0,0,27,26,41,61c0,0,14,36,14,78c0,0,0,176,-213,176H245V507ZM110,0V980H378c0,0,90,0,155,-19c0,0,65,-19,107,-54c0,0,43,-36,63,-86c0,0,20,-50,20,-113c0,0,0,-52,-15,-96c0,0,-16,-45,-44,-81c0,0,-29,-36,-71,-61c0,0,-42,-26,-95,-40c0,0,13,-8,24,-18c0,0,11,-10,22,-24L807,0H686c0,0,-35,0,-54,28L400,377c0,0,-11,16,-24,23c0,0,-13,7,-40,7H245V0Z" 
id="f0_q"
transform="scale(0.001,-0.001)" />

<path d="M336,-9c0,0,-91,0,-166,33c0,0,-76,35,-129,94l40,64c0,0,5,8,13,13c0,0,7,5,18,5c0,0,14,0,32,-15c0,0,17,-16,43,-34c0,0,26,-18,63,-34c0,0,37,-15,89,-15c0,0,43,0,77,13c0,0,33,13,57,36c0,0,23,23,35,55c0,0,13,33,13,72c0,0,0,44,-19,73c0,0,-19,28,-50,47c0,0,-31,19,-71,32c0,0,-39,13,-80,27c0,0,-41,14,-81,33c0,0,-39,18,-70,48c0,0,-31,30,-50,74c0,0,-19,44,-19,109c0,0,0,52,19,101c0,0,19,49,56,86c0,0,37,38,91,61c0,0,54,22,124,22c0,0,79,0,144,-26c0,0,65,-26,113,-76L595,826c0,0,-12,-21,-31,-21c0,0,-11,0,-27,11c0,0,-15,12,-37,26c0,0,-22,14,-53,25c0,0,-31,12,-74,12c0,0,-41,0,-72,-12c0,0,-31,-11,-51,-32c0,0,-21,-20,-31,-48c0,0,-11,-27,-11,-58c0,0,0,-41,19,-68c0,0,19,-27,50,-46c0,0,31,-19,71,-33c0,0,39,-14,80,-29c0,0,41,-15,81,-34c0,0,39,-19,70,-48c0,0,31,-29,50,-70c0,0,19,-42,19,-103c0,0,0,-65,-21,-121c0,0,-21,-56,-60,-98c0,0,-40,-42,-99,-66C468,13,410,-9,336,-9Z" 
id="f0_r"
transform="scale(0.001,-0.001)" />

<path d="M371,95c0,0,62,0,108,28c0,0,45,29,85,81V557c0,0,-35,47,-76,66c0,0,-41,19,-91,19c0,0,-99,0,-153,-73c0,0,-54,-72,-54,-206c0,0,0,-71,13,-122c0,0,12,-51,35,-83c0,0,23,-33,57,-48c0,0,33,-15,76,-15ZM328,-9c0,0,-62,0,-112,23c0,0,-50,24,-86,71c0,0,-36,47,-55,117c0,0,-20,70,-20,161c0,0,0,80,21,150c0,0,22,70,62,120c0,0,40,51,98,80c0,0,58,29,131,29c0,0,66,0,113,-22c0,0,47,-22,84,-63v404H695V0H617c0,0,-14,0,-23,6c0,0,-9,7,-11,21l-13,87c0,0,-46,-56,-105,-90C465,24,406,-9,328,-9Z" 
id="f0_s"
transform="scale(0.001,-0.001)" />

<path d="M202,-11c0,0,-18,0,-35,8c0,0,-16,6,-29,18c0,0,-12,13,-19,29c0,0,-8,17,-8,36c0,0,0,19,8,36c0,0,7,17,19,29c0,0,13,13,29,21c0,0,17,7,35,7c0,0,19,0,36,-7c0,0,16,-8,29,-21c0,0,13,-12,21,-29c0,0,7,-17,7,-36c0,0,0,-19,-7,-36c0,0,-8,-16,-21,-29C267,15,254,3,238,-3c0,0,-17,-8,-36,-8Zm-4,505c0,0,-19,0,-35,7c0,0,-17,8,-29,20c0,0,-12,12,-20,29c0,0,-7,17,-7,36c0,0,0,19,7,36c0,0,8,17,20,29c0,0,12,13,29,20c0,0,16,8,35,8c0,0,18,0,35,-8c0,0,17,-7,30,-20c0,0,13,-12,20,-29c0,0,8,-17,8,-36c0,0,0,-19,-8,-36c0,0,-7,-17,-20,-29c0,0,-13,-12,-30,-20c0,0,-17,-7,-35,-7Z" 
id="f0_t"
transform="scale(0.001,-0.001)" />

<path d="M372,0L4,980H114c0,0,18,0,29,-9c0,0,11,-9,17,-22L402,262c0,0,9,-23,18,-51c0,0,8,-27,15,-57c0,0,6,30,14,57c0,0,8,28,16,51L707,948c0,0,5,13,17,23c0,0,12,9,29,9H862L495,0Z" 
id="f0_v"
transform="scale(0.001,-0.001)" />

<path d="M103,0V980H239V114H617V0Z" 
id="f0_w"
transform="scale(0.001,-0.001)" />

<path d="M468,-9c0,0,-95,0,-172,35c0,0,-77,37,-132,103c0,0,-55,66,-85,158c0,0,-29,92,-29,203c0,0,0,111,31,203c0,0,32,93,88,159c0,0,57,66,136,103c0,0,79,36,175,36c0,0,94,0,166,-33c0,0,72,-34,126,-91L727,804c0,0,-4,-7,-11,-11c0,0,-7,-4,-17,-4c0,0,-13,0,-28,13c0,0,-15,13,-40,29c0,0,-25,16,-61,30c0,0,-37,13,-91,13c0,0,-64,0,-118,-26c0,0,-53,-26,-91,-76c0,0,-39,-49,-60,-120c0,0,-21,-72,-21,-162c0,0,0,-91,22,-163c0,0,22,-71,61,-120c0,0,39,-50,92,-76c0,0,52,-26,113,-26c0,0,37,0,66,5c0,0,30,6,55,16c0,0,25,11,47,28c0,0,22,17,44,40c0,0,11,10,23,10c0,0,10,0,19,-9l54,-58C785,137,732,67,654,28C654,28,577,-9,468,-9Z" 
id="f0_x"
transform="scale(0.001,-0.001)" />

<path d="M284,-10c0,0,-72,0,-131,23C153,13,93,38,52,78l31,49c0,0,6,10,14,15c0,0,8,5,21,5c0,0,13,0,27,-10c0,0,13,-10,32,-22c0,0,19,-13,46,-23c0,0,27,-10,67,-10c0,0,35,0,59,10c0,0,25,9,42,25c0,0,16,17,25,38c0,0,8,22,8,46c0,0,0,30,-16,49c0,0,-15,20,-39,34c0,0,-25,14,-57,24c0,0,-32,11,-65,22c0,0,-33,12,-65,26c0,0,-31,15,-56,38c0,0,-25,22,-40,55c0,0,-15,33,-15,80c0,0,0,42,16,81c0,0,17,38,48,67c0,0,31,29,78,47c0,0,46,17,106,17c0,0,67,0,123,-23c0,0,55,-22,94,-62L507,609c0,0,-9,-17,-27,-17c0,0,-12,0,-25,9c0,0,-13,8,-31,17c0,0,-18,9,-43,18c0,0,-25,8,-59,8c0,0,-30,0,-53,-8c0,0,-23,-9,-39,-23c0,0,-17,-14,-26,-33c0,0,-9,-19,-9,-41c0,0,0,-28,15,-47c0,0,15,-18,40,-32c0,0,25,-13,56,-24c0,0,32,-11,65,-22c0,0,33,-11,64,-26c0,0,32,-15,57,-37c0,0,24,-21,39,-52c0,0,15,-31,15,-75c0,0,0,-51,-17,-94c0,0,-17,-43,-50,-74C479,56,445,25,396,7c0,0,-48,-17,-112,-17Z" 
id="f0_y"
transform="scale(0.001,-0.001)" />

<path d="M56,376V487H413V376Z" 
id="f0_z"
transform="scale(0.001,-0.001)" />

<path d="M104,0V730h79c0,0,14,0,23,-7c0,0,9,-6,10,-20l12,-78c0,0,47,52,105,84c0,0,58,32,134,32c0,0,60,0,105,-20c0,0,45,-20,76,-56c0,0,30,-36,46,-87c0,0,15,-51,15,-113V0H578V465c0,0,0,81,-37,127c0,0,-37,45,-112,45c0,0,-56,0,-104,-26c0,0,-49,-27,-89,-74V0Z" 
id="f0_10"
transform="scale(0.001,-0.001)" />

<path d="M125,0V980H225c0,0,17,0,28,-3c0,0,10,-3,19,-20L623,357c0,0,10,-17,17,-35c0,0,8,-18,16,-36c0,0,7,19,15,37c0,0,8,18,17,34l346,601c0,0,9,16,19,19c0,0,11,3,29,3h100V0H1062V715c0,0,0,15,1,34c0,0,1,18,2,37L715,171c0,0,-17,-31,-49,-31H647c0,0,-32,0,-49,31L239,785c0,0,5,-38,5,-70V0Z" 
id="f0_11"
transform="scale(0.001,-0.001)" />

<path d="M125,0V980H260V0Z" 
id="f0_12"
transform="scale(0.001,-0.001)" />

<path d="M110,0V1061H241V0Z" 
id="f0_13"
transform="scale(0.001,-0.001)" />

<path d="M119,-207V1104H386v-51c0,0,0,-15,-9,-25c0,0,-10,-10,-26,-10H229V-121H351c0,0,16,0,26,-10c0,0,9,-10,9,-25v-51Z" 
id="f0_14"
transform="scale(0.001,-0.001)" />

<path d="M110,0V980h71c0,0,17,0,26,-4c0,0,9,-4,21,-19L760,224c0,0,-1,18,-2,35c0,0,-2,18,-2,33V980H876V0H807c0,0,-16,0,-26,5c0,0,-11,5,-22,19L227,755c0,0,1,-17,2,-33c0,0,1,-16,1,-30V0Z" 
id="f0_15"
transform="scale(0.001,-0.001)" />

<path d="M127,0V620L53,630c0,0,-16,1,-25,9c0,0,-10,9,-10,23v54H127v70c0,0,0,62,17,111c0,0,16,49,48,82c0,0,31,33,76,51c0,0,45,17,101,17c0,0,23,0,45,-3c0,0,22,-4,42,-11l-4,-65c0,0,-1,-18,-18,-19c0,0,-16,-2,-44,-2c0,0,-31,0,-56,-9c0,0,-25,-8,-43,-27c0,0,-18,-20,-28,-51c0,0,-9,-32,-9,-78V716H450V621H258V0Z" 
id="f0_16"
transform="scale(0.001,-0.001)" />

<path d="M82,-207v51c0,0,0,15,10,25c0,0,10,10,27,10H239V1018H119c0,0,-17,0,-27,10c0,0,-10,10,-10,25v51H349V-207Z" 
id="f0_17"
transform="scale(0.001,-0.001)" />


</defs>

<!-- Any embedded fonts defined here -->
<style type="text/css" ><![CDATA[

@font-face {
	font-family: Carlito_9;
	src: url("fonts/Carlito_9.woff") format("woff");
}

]]></style>

</svg>
